<svg width="34" height="34" viewBox="0 0 34 34" fill="none" xmlns="http://www.w3.org/2000/svg">
<path d="M17.0002 2.83333C9.18866 2.83333 2.8335 9.1885 2.8335 17C2.8335 24.8115 9.18866 31.1667 17.0002 31.1667C24.8117 31.1667 31.1668 24.8115 31.1668 17C31.1668 9.1885 24.8117 2.83333 17.0002 2.83333ZM17.0002 28.3333C10.7512 28.3333 5.66683 23.2489 5.66683 17C5.66683 10.7511 10.7512 5.66666 17.0002 5.66666C23.2491 5.66666 28.3335 10.7511 28.3335 17C28.3335 23.2489 23.2491 28.3333 17.0002 28.3333Z" fill="#3785D7"/>
<path d="M18.4168 9.91667H15.5835V17.5865L20.2486 22.2516L22.2517 20.2484L18.4168 16.4135V9.91667Z" fill="#3785D7"/>
</svg>
