<svg width="18" height="16" viewBox="0 0 18 16" fill="none" xmlns="http://www.w3.org/2000/svg">
<path d="M16.3125 2.375H13.2188L12.7835 1.21906C12.5367 0.560234 11.9109 0.125 11.2078 0.125H6.7957C6.09258 0.125 5.45977 0.560234 5.21367 1.21906L4.78125 2.375H1.6875C0.755859 2.375 0 3.13086 0 4.0625V14.1875C0 15.1191 0.755859 15.875 1.6875 15.875H16.3125C17.2441 15.875 18 15.1191 18 14.1875V4.0625C18 3.13086 17.2441 2.375 16.3125 2.375ZM12.5473 11.8953C11.6859 12.9957 10.3957 13.625 9 13.625C7.88273 13.625 6.84246 13.2052 6.02648 12.4786L5.34867 13.1567C5.03438 13.4703 4.5 13.2488 4.5 12.8059V10.1199C4.5 9.92821 4.65325 9.77405 4.84365 9.76871H7.54998C7.98416 9.77936 8.19932 10.3055 7.88938 10.6156L7.21192 11.2934C7.70977 11.7055 8.33555 11.9375 9 11.9375C9.87187 11.9375 10.6798 11.543 11.2177 10.8554C11.505 10.4884 12.035 10.4237 12.4021 10.7104C12.7691 10.9971 12.8355 11.5262 12.5473 11.8953ZM13.5 8.13008C13.5 8.32179 13.3468 8.47595 13.1563 8.48129H10.45C10.0158 8.47064 9.80068 7.94445 10.1106 7.63438L10.7881 6.95656C10.2902 6.54453 9.66445 6.3125 9 6.3125C8.12813 6.3125 7.32023 6.70695 6.78234 7.39461C6.49687 7.76094 5.96602 7.82773 5.59687 7.53945C5.23125 7.25469 5.16445 6.72383 5.45273 6.35469C6.31406 5.2543 7.6043 4.625 9 4.625C10.1173 4.625 11.1575 5.04477 11.9735 5.77145L12.6513 5.09328C12.9656 4.77969 13.5 5.00117 13.5 5.44414V8.13008Z" fill="black"/>
</svg>
