<svg width="33" height="34" viewBox="0 0 33 34" fill="none" xmlns="http://www.w3.org/2000/svg">
<path d="M0.507698 16.7346C0.725703 16.9076 0.994043 16.9998 1.26924 16.9961C1.46628 16.9961 1.66061 16.9488 1.83685 16.8581C2.01309 16.7673 2.1664 16.6355 2.28462 16.4732C3.05215 15.42 4.04684 14.565 5.19017 13.9757C6.3335 13.3863 7.59419 13.0787 8.87273 13.0771C10.1513 13.0755 11.4127 13.38 12.5574 13.9665C13.7021 14.5531 14.6988 15.4056 15.4688 16.4568L15.5639 16.5712H15.5798L15.6591 16.6529H15.6909L15.7385 16.7019H15.7543C15.7981 16.7402 15.846 16.7731 15.8971 16.8L15.9447 16.8327L16.0875 16.898H16.8014L16.9125 16.8653H16.9284L17.0553 16.8163H17.087L17.1663 16.7673L17.2139 16.7346L17.2615 16.7019C17.2657 16.7019 17.2698 16.7002 17.2728 16.6972C17.2757 16.6941 17.2774 16.6899 17.2774 16.6856L17.325 16.6366C17.3532 16.6235 17.3757 16.6002 17.3885 16.5712H17.4202L17.4995 16.4732H17.5154C18.2838 15.4179 19.2803 14.5614 20.4259 13.9714C21.5714 13.3815 22.8346 13.0744 24.1154 13.0744C25.3962 13.0744 26.6593 13.3815 27.8049 13.9714C28.9505 14.5614 29.9469 15.4179 30.7154 16.4732C30.9199 16.7469 31.2202 16.9275 31.5522 16.9764C31.8842 17.0252 32.2216 16.9385 32.4923 16.7346C32.6257 16.6316 32.738 16.5026 32.8229 16.3549C32.9078 16.2071 32.9637 16.0436 32.9872 15.8737C33.0108 15.7038 33.0017 15.5307 32.9603 15.3644C32.9189 15.1981 32.8462 15.0418 32.7462 14.9045C31.6229 13.3516 30.1241 12.129 28.399 11.3586C29.3428 10.4693 30.0037 9.30705 30.2949 8.02417C30.5861 6.7413 30.4941 5.39772 30.031 4.16964C29.5678 2.94155 28.7552 1.88628 27.6995 1.14221C26.6439 0.39814 25.3946 0 24.1154 0C22.8362 0 21.5869 0.39814 20.5313 1.14221C19.4756 1.88628 18.6629 2.94155 18.1998 4.16964C17.7367 5.39772 17.6447 6.7413 17.9359 8.02417C18.2271 9.30705 18.8879 10.4693 19.8317 11.3586C18.5887 11.9154 17.4584 12.7081 16.5 13.6953C15.5416 12.7081 14.4113 11.9154 13.1683 11.3586C14.1121 10.4693 14.7729 9.30705 15.0641 8.02417C15.3553 6.7413 15.2633 5.39772 14.8002 4.16964C14.3371 2.94155 13.5244 1.88628 12.4687 1.14221C11.4131 0.39814 10.1638 0 8.88462 0C7.60544 0 6.35613 0.39814 5.30049 1.14221C4.24485 1.88628 3.43218 2.94155 2.96903 4.16964C2.50589 5.39772 2.4139 6.7413 2.70511 8.02417C2.99633 9.30705 3.65717 10.4693 4.60097 11.3586C2.87594 12.129 1.3771 13.3516 0.253851 14.9045C0.153845 15.0418 0.0810808 15.1981 0.0397146 15.3644C-0.00165164 15.5307 -0.0108102 15.7038 0.0127616 15.8737C0.0363334 16.0436 0.0921741 16.2071 0.177095 16.3549C0.262017 16.5026 0.374355 16.6316 0.507698 16.7346ZM20.3077 6.53823C20.3077 5.76259 20.531 5.00437 20.9494 4.35945C21.3678 3.71453 21.9625 3.21188 22.6582 2.91506C23.354 2.61823 24.1196 2.54057 24.8582 2.69189C25.5969 2.84321 26.2753 3.21671 26.8078 3.76517C27.3403 4.31363 27.703 5.01241 27.8499 5.77314C27.9968 6.53388 27.9214 7.3224 27.6332 8.03899C27.345 8.75559 26.857 9.36807 26.2308 9.79899C25.6047 10.2299 24.8685 10.4599 24.1154 10.4599C23.1068 10.4556 22.1407 10.0411 21.4276 9.30653C20.7144 8.572 20.3119 7.577 20.3077 6.53823ZM5.07693 6.53823C5.07693 5.76259 5.30025 5.00437 5.71864 4.35945C6.13703 3.71453 6.73171 3.21188 7.42748 2.91506C8.12324 2.61823 8.88884 2.54057 9.62746 2.69189C10.3661 2.84321 11.0445 3.21671 11.5771 3.76517C12.1096 4.31363 12.4722 5.01241 12.6191 5.77314C12.7661 6.53388 12.6907 7.3224 12.4025 8.03899C12.1143 8.75559 11.6262 9.36807 11.0001 9.79899C10.3739 10.2299 9.63771 10.4599 8.88462 10.4599C7.87604 10.4556 6.90997 10.0411 6.19679 9.30653C5.48361 8.572 5.0811 7.577 5.07693 6.53823ZM28.399 28.3526C29.3428 27.4633 30.0037 26.301 30.2949 25.0182C30.5861 23.7353 30.4941 22.3917 30.031 21.1636C29.5678 19.9355 28.7552 18.8803 27.6995 18.1362C26.6439 17.3921 25.3946 16.994 24.1154 16.994C22.8362 16.994 21.5869 17.3921 20.5313 18.1362C19.4756 18.8803 18.6629 19.9355 18.1998 21.1636C17.7367 22.3917 17.6447 23.7353 17.9359 25.0182C18.2271 26.301 18.8879 27.4633 19.8317 28.3526C18.5887 28.9094 17.4584 29.702 16.5 30.6893C15.5416 29.702 14.4113 28.9094 13.1683 28.3526C14.1121 27.4633 14.7729 26.301 15.0641 25.0182C15.3553 23.7353 15.2633 22.3917 14.8002 21.1636C14.3371 19.9355 13.5244 18.8803 12.4687 18.1362C11.4131 17.3921 10.1638 16.994 8.88462 16.994C7.60544 16.994 6.35613 17.3921 5.30049 18.1362C4.24485 18.8803 3.43218 19.9355 2.96903 21.1636C2.50589 22.3917 2.4139 23.7353 2.70511 25.0182C2.99633 26.301 3.65717 27.4633 4.60097 28.3526C2.87594 29.123 1.3771 30.3455 0.253851 31.8985C0.0518788 32.1758 -0.0348438 32.5245 0.0127616 32.8677C0.060367 33.2109 0.238401 33.5206 0.507698 33.7286C0.725703 33.9016 0.994043 33.9937 1.26924 33.9901C1.46628 33.9901 1.66061 33.9428 1.83685 33.852C2.01309 33.7613 2.1664 33.6295 2.28462 33.4672C3.05215 32.414 4.04684 31.559 5.19017 30.9696C6.3335 30.3803 7.59419 30.0726 8.87273 30.0711C10.1513 30.0695 11.4127 30.374 12.5574 30.9605C13.7021 31.547 14.6988 32.3996 15.4688 33.4508L15.5639 33.5652H15.5798L15.6591 33.6469H15.6909L15.7385 33.6959H15.7543L15.8971 33.794L15.9447 33.8266L16.0875 33.892H16.8014L16.9125 33.8593H16.9284L17.0553 33.8103H17.087L17.1663 33.7613L17.2139 33.7286L17.2615 33.6959H17.2774L17.325 33.6469C17.3532 33.6338 17.3757 33.6106 17.3885 33.5815H17.4202L17.4995 33.4835H17.5154C18.2838 32.4282 19.2803 31.5717 20.4259 30.9818C21.5714 30.3918 22.8346 30.0847 24.1154 30.0847C25.3962 30.0847 26.6593 30.3918 27.8049 30.9818C28.9505 31.5717 29.9469 32.4282 30.7154 33.4835C30.9199 33.7573 31.2202 33.9378 31.5522 33.9867C31.8842 34.0355 32.2216 33.9488 32.4923 33.7449C32.6257 33.6419 32.738 33.5129 32.8229 33.3652C32.9078 33.2175 32.9637 33.054 32.9872 32.884C33.0108 32.7141 33.0017 32.541 32.9603 32.3747C32.9189 32.2084 32.8462 32.0522 32.7462 31.9148C31.6249 30.3559 30.1259 29.1275 28.399 28.3526ZM5.07693 23.5322C5.07693 22.7566 5.30025 21.9984 5.71864 21.3534C6.13703 20.7085 6.73171 20.2059 7.42748 19.909C8.12324 19.6122 8.88884 19.5346 9.62746 19.6859C10.3661 19.8372 11.0445 20.2107 11.5771 20.7592C12.1096 21.3076 12.4722 22.0064 12.6191 22.7671C12.7661 23.5279 12.6907 24.3164 12.4025 25.033C12.1143 25.7496 11.6262 26.3621 11.0001 26.793C10.3739 27.2239 9.63771 27.4539 8.88462 27.4539C7.87604 27.4496 6.90997 27.035 6.19679 26.3005C5.48361 25.566 5.0811 24.571 5.07693 23.5322ZM20.3077 23.5322C20.3077 22.7566 20.531 21.9984 20.9494 21.3534C21.3678 20.7085 21.9625 20.2059 22.6582 19.909C23.354 19.6122 24.1196 19.5346 24.8582 19.6859C25.5969 19.8372 26.2753 20.2107 26.8078 20.7592C27.3403 21.3076 27.703 22.0064 27.8499 22.7671C27.9968 23.5279 27.9214 24.3164 27.6332 25.033C27.345 25.7496 26.857 26.3621 26.2308 26.793C25.6047 27.2239 24.8685 27.4539 24.1154 27.4539C23.1068 27.4496 22.1407 27.035 21.4276 26.3005C20.7144 25.566 20.3119 24.571 20.3077 23.5322Z" fill="#3785D7"/>
</svg>
