<svg width="75" height="75" viewBox="0 0 75 75" fill="none" xmlns="http://www.w3.org/2000/svg">
<path fill-rule="evenodd" clip-rule="evenodd" d="M37.5 0C16.8027 0 0 16.8027 0 37.5C0 58.1973 16.8027 75 37.5 75C58.1973 75 75 58.1973 75 37.5C75 16.8027 58.1973 0 37.5 0ZM37.5 5.35714C55.2402 5.35714 69.6429 19.7598 69.6429 37.5C69.6429 55.2402 55.2402 69.6429 37.5 69.6429C19.7598 69.6429 5.35714 55.2402 5.35714 37.5C5.35714 19.7598 19.7598 5.35714 37.5 5.35714ZM37.5081 53.5714C39.3857 53.6036 40.8857 55.1572 40.8536 57.0375C40.8214 58.9179 39.2678 60.4152 37.3875 60.383C35.5098 60.3509 34.0098 58.7973 34.042 56.9169C34.0741 55.0393 35.6277 53.5393 37.5081 53.5714ZM29.4643 26.7857C29.4643 22.35 33.0643 18.75 37.5 18.75C41.9357 18.75 45.5357 22.35 45.5357 26.7857L45.5464 27.0214C45.6991 28.7732 44.7991 30.5893 43.4464 32.5366C42.525 33.8572 40.7277 35.1831 39.1205 36.8732C37.0178 39.0804 35.1991 41.767 34.8348 45.2571C34.6822 46.7277 35.7509 48.0455 37.2214 48.2009C38.692 48.3536 40.0098 47.2848 40.1652 45.8143C40.4491 43.0822 42.2866 41.2125 43.9554 39.6107C45.4929 38.1348 46.9741 36.8411 47.8419 35.5982C50.0116 32.4803 51.1098 29.4455 50.8902 26.633C50.8446 19.3473 44.8634 13.3929 37.5 13.3929C30.1071 13.3929 24.1071 19.3929 24.1071 26.7857C24.1071 28.2643 25.3071 29.4643 26.7857 29.4643C28.2643 29.4643 29.4643 28.2643 29.4643 26.7857V26.7857Z" fill="#227AFF"/>
</svg>
