<svg width="75" height="75" viewBox="0 0 75 75" fill="none" xmlns="http://www.w3.org/2000/svg">
<path d="M50.0209 49.5535C58.0018 37.0301 56.9985 38.5925 57.2285 38.266C60.1342 34.1676 61.6699 29.344 61.6699 24.3164C61.6699 10.9834 50.8504 0 37.5 0C24.1931 0 13.3301 10.9617 13.3301 24.3164C13.3301 29.3408 14.898 34.2907 17.8989 38.4442L24.9788 49.5536C17.4092 50.7168 4.54102 54.1834 4.54102 61.8164C4.54102 64.5989 6.35713 68.5642 15.0091 71.6541C21.0504 73.8117 29.0377 75 37.5 75C53.324 75 70.459 70.5363 70.459 61.8164C70.459 54.1821 57.6059 50.7192 50.0209 49.5535ZM21.5697 36.0271C21.5455 35.9893 21.5203 35.9524 21.4939 35.9161C18.9968 32.4807 17.7246 28.4093 17.7246 24.3164C17.7246 13.3274 26.5731 4.39453 37.5 4.39453C48.4042 4.39453 57.2754 13.3314 57.2754 24.3164C57.2754 28.4159 56.0272 32.3492 53.6651 35.694C53.4535 35.9732 54.5578 34.2576 37.5 61.0238L21.5697 36.0271ZM37.5 70.6055C20.2157 70.6055 8.93555 65.525 8.93555 61.8164C8.93555 59.3238 14.7316 55.2253 27.5754 53.6278L35.647 66.2933C36.0504 66.9264 36.7491 67.3096 37.4999 67.3096C38.2506 67.3096 38.9495 66.9262 39.3527 66.2933L47.4242 53.6278C60.2682 55.2253 66.0645 59.3238 66.0645 61.8164C66.0645 65.4935 54.8858 70.6055 37.5 70.6055Z" fill="#227AFF"/>
<path d="M37.5 13.3301C31.4421 13.3301 26.5137 18.2585 26.5137 24.3164C26.5137 30.3743 31.4421 35.3027 37.5 35.3027C43.5579 35.3027 48.4863 30.3743 48.4863 24.3164C48.4863 18.2585 43.5579 13.3301 37.5 13.3301ZM37.5 30.9082C33.8653 30.9082 30.9082 27.9511 30.9082 24.3164C30.9082 20.6817 33.8653 17.7246 37.5 17.7246C41.1347 17.7246 44.0918 20.6817 44.0918 24.3164C44.0918 27.9511 41.1347 30.9082 37.5 30.9082Z" fill="#227AFF"/>
</svg>
