<svg width="75" height="75" viewBox="0 0 75 75" fill="none" xmlns="http://www.w3.org/2000/svg">
<g clip-path="url(#clip0_578_154)">
<path d="M37.5 0C16.85 0 0 16.7111 0 37.5C0 58.2264 16.772 75 37.5 75C58.421 75 75 58.015 75 37.5C75 16.6915 58.1391 0 37.5 0ZM4.87017 37.5C4.87017 35.116 5.12959 32.7916 5.61738 30.5515C6.31245 31.2275 7.11035 31.8296 8.00742 32.3481C11.1256 34.1502 10.6075 40.8371 9.63706 44.0165C9.02813 46.0118 9.01099 49.1074 9.5918 52.0956C9.85767 53.4637 10.2996 55.0806 11.0292 56.5566C7.1562 51.1913 4.87017 44.608 4.87017 37.5ZM10.4445 28.1316C8.94155 27.2631 7.97754 26.116 7.51362 24.6397C12.1323 13.9116 22.3449 6.13901 34.4575 5.01343C33.4204 5.74702 32.5318 6.35581 31.8519 6.79702C27.3126 9.7415 24.0309 12.0697 23.1467 15.2284C22.7181 16.7584 22.7423 19.1159 25.2911 21.6555C26.6813 23.0405 28.4968 24.1792 29.9556 25.0939C30.7223 25.5746 31.5146 26.0716 31.8542 26.373C32.8469 27.2546 33.0148 28.8501 33.0267 29.7227C33.0633 32.4587 31.7886 35.6638 29.9956 37.3434C25.9414 41.1417 23.9477 45.4772 24.526 49.2381C25.0418 52.5926 27.8796 57.0117 30.1598 60.5626C30.296 60.7746 30.4299 60.9832 30.5609 61.1877C29.4161 60.7033 27.7813 60.1601 25.5587 59.4321C22.3607 58.3846 17.9807 56.9496 16.4698 55.8516C14.5789 54.4775 13.477 48.1207 14.2957 45.4383C14.8827 43.5148 15.4317 40.3332 15.2123 37.1722C14.9143 32.8884 13.2658 29.7621 10.4445 28.1316ZM37.5 70.1298C28.2048 70.1298 19.8056 66.2228 13.8568 59.9651C16.0554 61.443 20.1127 62.7727 24.042 64.06C26.151 64.7509 28.5412 65.5339 29.2104 65.9316C30.5883 66.7509 31.9371 67.184 33.1109 67.184C33.111 67.184 33.111 67.184 33.111 67.184C34.5523 67.184 35.7419 66.5341 36.3747 65.401C37.171 63.9751 36.9201 62.1896 35.629 60.094C35.2204 59.4309 34.7527 58.7023 34.2571 57.9311C32.3329 54.9346 29.6977 50.8311 29.3391 48.4982C29.0137 46.3821 30.5039 43.5409 33.3249 40.8977C36.114 38.2844 37.9507 33.7676 37.8957 29.6578C37.8564 26.7229 36.8851 24.3278 35.0871 22.7314C34.4448 22.1612 33.5631 21.6083 32.5425 20.9684C30.9009 19.9389 27.4846 17.7968 27.836 16.5415C28.2926 14.9105 32.0291 12.4866 34.5019 10.8829C36.8342 9.37002 40.529 6.64351 42.4093 5.23975C45.9281 5.7731 49.2643 6.86997 52.3225 8.43589C47.8377 11.3988 45.4929 15.3538 45.4929 20.048C45.4929 23.3511 47.69 25.8705 49.6286 28.0935C50.8916 29.5417 52.3232 31.1833 52.0157 31.9923C51.111 34.3704 50.3045 36.3668 50.3209 38.3684C50.341 40.819 51.6127 42.7538 54.1011 44.1187C54.5178 44.3471 55.7771 45.0381 64.672 45.9782C65.089 47.4168 64.697 51.1828 65.4201 54.3721C59.6956 63.8099 49.3222 70.1298 37.5 70.1298ZM65.4524 41.1625C60.5395 40.6497 57.1427 40.089 56.377 39.8115C54.812 38.9465 54.7235 38.5642 56.5689 33.7216C57.9133 30.1828 55.355 27.2492 53.2994 24.8921C51.8559 23.237 50.3634 21.5254 50.3634 20.0476C50.3634 16.4767 52.5942 13.5558 56.9984 11.352C64.9811 17.32 70.1298 26.8399 70.1298 37.5C70.1298 39.8631 69.8704 42.2657 69.3438 44.6249C68.5556 41.8841 66.5688 41.279 65.4524 41.1625Z" fill="#227AFF"/>
</g>
<defs>
<clipPath id="clip0_578_154">
<rect width="75" height="75" fill="white"/>
</clipPath>
</defs>
</svg>
